<?xml version="1.0" encoding="utf-8"?>
<!-- Generator: Adobe Illustrator 15.1.0, SVG Export Plug-In . SVG Version: 6.00 Build 0)  -->
<!DOCTYPE svg PUBLIC "-//W3C//DTD SVG 1.1//EN" "http://www.w3.org/Graphics/SVG/1.1/DTD/svg11.dtd">
<svg version="1.1" id="Layer_1" xmlns="http://www.w3.org/2000/svg" xmlns:xlink="http://www.w3.org/1999/xlink" x="0px" y="0px"
	 width="348.267px" height="79.937px" viewBox="291.142 321.847 348.267 79.937"
	 enable-background="new 291.142 321.847 348.267 79.937" xml:space="preserve">
<g>
	<g>
		<g>
			<path fill="#FFFFFF" d="M369.487,389.431h2.02v4.037c-1.116,1.245-2.705,1.848-4.811,1.848c-1.761,0-3.221-0.561-4.424-1.719
				c-1.204-1.16-1.761-2.621-1.761-4.381c0-1.762,0.602-3.222,1.804-4.426c1.203-1.159,2.663-1.76,4.381-1.76
				c1.719,0,3.136,0.516,4.253,1.503l-1.074,1.546c-0.473-0.387-0.944-0.687-1.417-0.816c-0.473-0.17-1.03-0.215-1.632-0.215
				c-1.204,0-2.191,0.388-3.008,1.16c-0.815,0.773-1.202,1.805-1.202,3.051c0,1.244,0.387,2.276,1.202,3.048
				c0.774,0.773,1.761,1.161,2.878,1.161s2.063-0.258,2.836-0.73v-3.307H369.487z"/>
			<path fill="#FFFFFF" d="M380.185,391.063v-4.898h1.89v9.021h-1.89v-1.632c-0.302,0.559-0.731,0.988-1.246,1.288
				c-0.559,0.301-1.117,0.474-1.762,0.474c-1.03,0-1.848-0.301-2.448-0.945c-0.644-0.602-0.945-1.504-0.945-2.707v-5.541h1.891v4.94
				c0,1.675,0.688,2.491,2.063,2.491c0.644,0,1.244-0.216,1.717-0.646C379.927,392.565,380.185,391.92,380.185,391.063z"/>
			<path fill="#FFFFFF" d="M384.952,384.404c-0.258-0.259-0.344-0.517-0.344-0.858c0-0.345,0.129-0.602,0.344-0.859
				c0.257-0.257,0.516-0.345,0.857-0.345c0.345,0,0.603,0.13,0.86,0.345c0.258,0.258,0.345,0.515,0.345,0.859
				c0,0.342-0.13,0.6-0.345,0.858c-0.258,0.257-0.516,0.343-0.86,0.343C385.468,384.747,385.167,384.619,384.952,384.404z
				 M386.713,395.228h-1.891v-9.02h1.891V395.228z"/>
			<path fill="#FFFFFF" d="M390.148,394.068c-0.858-0.858-1.287-1.975-1.287-3.393c0-1.417,0.429-2.535,1.287-3.352
				c0.859-0.814,1.892-1.245,3.136-1.245c1.204,0,2.191,0.516,2.921,1.547v-4.939h1.891v12.585h-1.891v-1.374
				c-0.687,0.988-1.717,1.503-3.092,1.503C391.995,395.357,391.008,394.929,390.148,394.068z M390.793,390.762
				c0,0.859,0.258,1.59,0.817,2.104c0.559,0.56,1.201,0.816,1.933,0.816c0.73,0,1.374-0.257,1.891-0.816
				c0.515-0.56,0.771-1.245,0.771-2.104s-0.257-1.588-0.771-2.148c-0.517-0.558-1.16-0.859-1.935-0.859
				c-0.772,0-1.416,0.302-1.932,0.859C391.051,389.174,390.793,389.902,390.793,390.762z"/>
			<path fill="#FFFFFF" d="M409.265,391.535h-7.088c0.043,0.644,0.343,1.202,0.902,1.589c0.558,0.388,1.202,0.601,1.89,0.601
				c1.117,0,1.976-0.342,2.576-1.073l1.074,1.203c-0.988,0.987-2.233,1.503-3.823,1.503c-1.245,0-2.361-0.429-3.221-1.245
				c-0.901-0.859-1.332-1.977-1.332-3.394s0.473-2.534,1.375-3.395c0.901-0.814,1.977-1.245,3.178-1.245
				c1.246,0,2.276,0.388,3.137,1.118c0.858,0.729,1.287,1.76,1.287,3.049v1.289H409.265z M402.177,390.031h5.197
				c0-0.772-0.259-1.331-0.731-1.761c-0.472-0.387-1.073-0.603-1.761-0.603s-1.331,0.216-1.891,0.646
				C402.477,388.742,402.177,389.302,402.177,390.031z"/>
			<path fill="#FFFFFF" d="M416.094,387.969c-0.945,0-1.634,0.303-2.104,0.902c-0.473,0.602-0.731,1.418-0.731,2.448v3.866h-1.89
				v-9.021h1.89v1.805c0.302-0.558,0.731-1.029,1.247-1.374c0.515-0.343,1.074-0.558,1.674-0.558v1.932
				C416.136,387.969,416.136,387.969,416.094,387.969z"/>
			<path fill="#FFFFFF" d="M429.064,391.063v-4.898h1.891v9.021h-1.891v-1.632c-0.301,0.559-0.729,0.988-1.243,1.288
				c-0.561,0.301-1.119,0.474-1.763,0.474c-1.031,0-1.848-0.301-2.448-0.945c-0.646-0.602-0.944-1.504-0.944-2.707v-5.541h1.889
				v4.94c0,1.675,0.687,2.491,2.062,2.491c0.645,0,1.246-0.216,1.72-0.646C428.808,392.565,429.064,391.92,429.064,391.063z"/>
			<path fill="#FFFFFF" d="M435.595,390.332v4.896h-1.891v-9.02h1.891v1.632c0.299-0.558,0.729-0.986,1.244-1.288
				c0.56-0.3,1.117-0.473,1.719-0.473c1.03,0,1.848,0.302,2.449,0.945c0.643,0.602,0.944,1.504,0.944,2.706v5.541h-1.891v-4.939
				c0-1.675-0.687-2.492-2.062-2.492c-0.645,0-1.245,0.216-1.718,0.645C435.852,388.871,435.595,389.516,435.595,390.332z"/>
			<path fill="#FFFFFF" d="M453.032,386.208v7.86c0,1.589-0.429,2.793-1.287,3.608c-0.86,0.816-1.978,1.203-3.352,1.203
				s-2.577-0.43-3.693-1.288l0.902-1.462c0.902,0.688,1.76,0.988,2.662,0.988c0.903,0,1.633-0.215,2.148-0.687
				c0.515-0.473,0.772-1.204,0.772-2.234v-1.159c-0.301,0.516-0.687,0.945-1.203,1.287c-0.515,0.302-1.117,0.474-1.761,0.474
				c-1.202,0-2.189-0.429-2.964-1.245c-0.773-0.816-1.16-1.891-1.16-3.137c0-1.243,0.387-2.276,1.16-3.135
				c0.774-0.815,1.762-1.245,2.964-1.245c1.204,0,2.148,0.473,2.92,1.459v-1.332h1.891V386.208z M445.99,390.375
				c0,0.73,0.213,1.374,0.686,1.932c0.473,0.56,1.073,0.817,1.848,0.817c0.771,0,1.417-0.258,1.89-0.772
				c0.472-0.517,0.729-1.16,0.729-1.935c0-0.772-0.257-1.417-0.729-1.975c-0.473-0.559-1.118-0.816-1.89-0.816
				c-0.774,0-1.375,0.258-1.848,0.816C446.203,388.957,445.99,389.603,445.99,390.375z"/>
			<path fill="#FFFFFF" d="M464.159,391.535h-7.09c0.044,0.644,0.345,1.202,0.903,1.589c0.559,0.388,1.202,0.601,1.891,0.601
				c1.116,0,1.976-0.342,2.576-1.073l1.074,1.203c-0.988,0.987-2.233,1.503-3.823,1.503c-1.245,0-2.361-0.429-3.221-1.245
				c-0.902-0.859-1.332-1.977-1.332-3.394s0.473-2.534,1.375-3.395c0.901-0.814,1.977-1.245,3.178-1.245
				c1.246,0,2.276,0.388,3.137,1.118c0.858,0.729,1.288,1.76,1.288,3.049v1.289H464.159z M457.069,390.031h5.199
				c0-0.772-0.259-1.331-0.731-1.761c-0.473-0.387-1.073-0.603-1.761-0.603s-1.331,0.216-1.891,0.646
				C457.371,388.742,457.069,389.302,457.069,390.031z"/>
			<path fill="#FFFFFF" d="M479.233,386.208v7.86c0,1.589-0.43,2.793-1.288,3.608c-0.858,0.816-1.976,1.203-3.351,1.203
				c-1.373,0-2.577-0.43-3.693-1.288l0.902-1.462c0.902,0.688,1.76,0.988,2.662,0.988s1.633-0.215,2.148-0.687
				c0.516-0.473,0.772-1.204,0.772-2.234v-1.159c-0.3,0.516-0.687,0.945-1.202,1.287c-0.515,0.302-1.115,0.474-1.761,0.474
				c-1.202,0-2.19-0.429-2.964-1.245s-1.159-1.891-1.159-3.137c0-1.243,0.386-2.276,1.159-3.135
				c0.773-0.815,1.762-1.245,2.964-1.245c1.203,0,2.147,0.473,2.921,1.459v-1.332h1.889V386.208z M472.189,390.375
				c0,0.73,0.216,1.374,0.688,1.932c0.473,0.56,1.074,0.817,1.847,0.817c0.773,0,1.419-0.258,1.891-0.772
				c0.473-0.517,0.73-1.16,0.73-1.935c0-0.772-0.258-1.417-0.73-1.975c-0.472-0.559-1.117-0.816-1.891-0.816
				c-0.772,0-1.374,0.258-1.847,0.816C472.447,388.957,472.189,389.603,472.189,390.375z"/>
			<path fill="#FFFFFF" d="M490.402,391.535h-7.087c0.043,0.644,0.343,1.202,0.901,1.589c0.559,0.388,1.203,0.601,1.891,0.601
				c1.115,0,1.976-0.342,2.577-1.073l1.073,1.203c-0.988,0.987-2.232,1.503-3.78,1.503c-1.288,0-2.362-0.429-3.221-1.245
				c-0.901-0.859-1.331-1.977-1.331-3.394s0.472-2.534,1.374-3.395c0.902-0.814,1.976-1.245,3.178-1.245
				c1.245,0,2.277,0.388,3.137,1.118c0.858,0.729,1.288,1.76,1.288,3.049V391.535L490.402,391.535z M483.315,390.031h5.154
				c0-0.772-0.258-1.331-0.729-1.761c-0.474-0.387-1.074-0.603-1.763-0.603c-0.687,0-1.33,0.216-1.89,0.646
				C483.572,388.742,483.315,389.302,483.315,390.031z"/>
			<path fill="#FFFFFF" d="M494.397,390.332v4.896h-1.891v-9.02h1.891v1.632c0.301-0.558,0.729-0.986,1.243-1.288
				c0.561-0.3,1.119-0.473,1.763-0.473c1.031,0,1.847,0.302,2.448,0.945c0.646,0.602,0.944,1.504,0.944,2.706v5.541h-1.888v-4.939
				c0-1.675-0.688-2.492-2.063-2.492c-0.645,0-1.247,0.216-1.719,0.645C494.611,388.871,494.397,389.516,494.397,390.332z"/>
			<path fill="#FFFFFF" d="M505.35,390.332v4.896h-1.89v-9.02h1.89v1.632c0.303-0.558,0.731-0.986,1.247-1.288
				c0.558-0.3,1.116-0.473,1.717-0.473c1.031,0,1.848,0.302,2.448,0.945c0.646,0.602,0.944,1.504,0.944,2.706v5.541h-1.889v-4.939
				c0-1.675-0.688-2.492-2.062-2.492c-0.645,0-1.246,0.216-1.719,0.645C505.563,388.871,505.35,389.516,505.35,390.332z"/>
			<path fill="#FFFFFF" d="M522.789,391.535h-7.044c0.042,0.644,0.343,1.202,0.902,1.589c0.558,0.388,1.202,0.601,1.89,0.601
				c1.116,0,1.976-0.342,2.577-1.073l1.073,1.203c-0.988,0.987-2.232,1.503-3.822,1.503c-1.246,0-2.363-0.429-3.224-1.245
				c-0.899-0.859-1.328-1.977-1.328-3.394s0.472-2.534,1.373-3.395c0.901-0.814,1.976-1.245,3.179-1.245
				c1.245,0,2.277,0.388,3.136,1.118c0.859,0.729,1.288,1.76,1.288,3.049V391.535z M515.745,390.031h5.155
				c0-0.772-0.258-1.331-0.731-1.761c-0.473-0.387-1.073-0.603-1.761-0.603c-0.687,0-1.331,0.216-1.891,0.646
				C516.002,388.742,515.745,389.302,515.745,390.031z"/>
			<path fill="#FFFFFF" d="M526.784,390.332v4.896h-1.891v-9.02h1.891v1.632c0.257-0.558,0.688-0.986,1.246-1.288
				c0.558-0.3,1.159-0.473,1.76-0.473c1.417,0,2.406,0.602,2.921,1.761c0.902-1.159,2.021-1.761,3.351-1.761
				c1.03,0,1.848,0.302,2.448,0.945c0.645,0.602,0.945,1.504,0.945,2.706v5.541h-1.891v-4.939c0-1.675-0.688-2.492-2.062-2.492
				c-0.644,0-1.201,0.216-1.674,0.603c-0.473,0.429-0.731,1.03-0.775,1.804v5.025h-1.889v-4.939c0-0.859-0.172-1.504-0.473-1.89
				c-0.299-0.387-0.773-0.603-1.46-0.603c-0.645,0-1.246,0.216-1.719,0.645C527.041,388.871,526.784,389.516,526.784,390.332z"/>
			<path fill="#FFFFFF" d="M548.647,390.332v4.896h-1.89v-12.584h1.89v5.196c0.257-0.558,0.687-0.986,1.246-1.288
				c0.557-0.3,1.16-0.473,1.76-0.473c1.031,0,1.848,0.302,2.448,0.945c0.645,0.602,0.944,1.504,0.944,2.706v5.541h-1.889v-4.939
				c0-1.675-0.687-2.492-2.062-2.492c-0.646,0-1.246,0.216-1.72,0.645C548.904,388.871,548.647,389.516,548.647,390.332z"/>
			<path fill="#FFFFFF" d="M565.012,395.228h-1.718v-1.201c-0.729,0.902-1.761,1.331-3.008,1.331c-0.944,0-1.717-0.258-2.318-0.815
				c-0.601-0.516-0.945-1.246-0.945-2.148c0-0.901,0.345-1.546,0.988-1.977c0.645-0.43,1.546-0.643,2.663-0.643h2.448v-0.344
				c0-1.204-0.687-1.805-2.019-1.805c-0.817,0-1.72,0.301-2.62,0.902l-0.858-1.204c1.116-0.857,2.361-1.287,3.735-1.287
				c1.075,0,1.934,0.258,2.622,0.816c0.686,0.558,0.987,1.373,0.987,2.533v5.841H565.012z M563.122,391.878v-0.772h-2.148
				c-1.373,0-2.061,0.43-2.061,1.288c0,0.429,0.172,0.772,0.515,1.032c0.344,0.214,0.816,0.343,1.418,0.343
				c0.603,0,1.118-0.172,1.59-0.516C562.908,392.908,563.122,392.437,563.122,391.878z M562.607,382.3
				c0.386,0.344,0.558,0.773,0.558,1.246s-0.172,0.902-0.558,1.244c-0.387,0.345-0.817,0.518-1.289,0.518
				c-0.473,0-0.902-0.173-1.289-0.518c-0.386-0.342-0.558-0.771-0.558-1.244s0.172-0.902,0.558-1.246
				c0.387-0.343,0.816-0.516,1.289-0.516C561.79,381.784,562.221,381.957,562.607,382.3z M561.318,384.49
				c0.258,0,0.515-0.086,0.688-0.258c0.172-0.172,0.257-0.387,0.257-0.687c0-0.258-0.085-0.516-0.257-0.688
				c-0.173-0.172-0.388-0.258-0.688-0.258c-0.257,0-0.515,0.086-0.687,0.258c-0.174,0.172-0.259,0.385-0.259,0.688
				c0,0.257,0.085,0.515,0.259,0.687C560.846,384.404,561.062,384.49,561.318,384.49z"/>
			<path fill="#FFFFFF" d="M572.401,387.969c-0.945,0-1.634,0.303-2.105,0.902c-0.473,0.602-0.729,1.418-0.729,2.448v3.866h-1.891
				v-9.021h1.891v1.805c0.299-0.558,0.729-1.029,1.245-1.374c0.515-0.343,1.073-0.558,1.676-0.558v1.932
				C572.487,387.969,572.443,387.969,572.401,387.969z"/>
			<path fill="#FFFFFF" d="M575.105,394.068c-0.858-0.858-1.288-1.975-1.288-3.393c0-1.417,0.43-2.535,1.288-3.352
				c0.86-0.814,1.891-1.245,3.095-1.245c1.202,0,2.189,0.516,2.919,1.547v-4.939h1.891v12.585h-1.891v-1.374
				c-0.688,0.988-1.717,1.503-3.049,1.503C576.953,395.357,575.966,394.929,575.105,394.068z M575.707,390.762
				c0,0.859,0.259,1.59,0.816,2.104c0.559,0.56,1.204,0.816,1.934,0.816s1.374-0.257,1.89-0.816c0.515-0.56,0.772-1.245,0.772-2.104
				s-0.258-1.588-0.772-2.148c-0.516-0.558-1.16-0.859-1.934-0.859c-0.772,0-1.417,0.302-1.932,0.859
				C576.008,389.174,575.707,389.902,575.707,390.762z"/>
			<path fill="#FFFFFF" d="M594.221,391.535h-7.087c0.042,0.644,0.343,1.202,0.901,1.589c0.558,0.388,1.203,0.601,1.89,0.601
				c1.117,0,1.977-0.342,2.579-1.073l1.072,1.203c-0.988,0.987-2.233,1.503-3.823,1.503c-1.246,0-2.361-0.429-3.222-1.245
				c-0.901-0.859-1.332-1.977-1.332-3.394s0.473-2.534,1.375-3.395c0.902-0.814,1.977-1.245,3.179-1.245
				c1.246,0,2.276,0.388,3.136,1.118c0.859,0.729,1.289,1.76,1.289,3.049v1.289H594.221z M587.134,390.031h5.196
				c0-0.772-0.258-1.331-0.729-1.761c-0.474-0.387-1.076-0.603-1.762-0.603c-0.688,0-1.333,0.216-1.891,0.646
				C587.392,388.742,587.134,389.302,587.134,390.031z"/>
			<path fill="#FFFFFF" d="M603.283,387.712v4.595c0,0.431,0.128,0.773,0.345,1.031c0.216,0.259,0.558,0.387,0.944,0.387
				c0.386,0,0.817-0.213,1.159-0.601l0.774,1.332c-0.688,0.601-1.418,0.901-2.235,0.901c-0.814,0-1.503-0.301-2.061-0.859
				c-0.559-0.558-0.859-1.332-0.859-2.275v-4.511h-1.117v-1.548h1.117v-2.834h1.891v2.834h2.361v1.548H603.283L603.283,387.712z"/>
			<path fill="#FFFFFF" d="M608.137,384.404c-0.257-0.259-0.342-0.517-0.342-0.858c0-0.345,0.129-0.602,0.342-0.859
				c0.258-0.257,0.516-0.345,0.859-0.345c0.345,0,0.603,0.13,0.859,0.345c0.257,0.258,0.343,0.515,0.343,0.859
				c0,0.342-0.129,0.6-0.343,0.858c-0.257,0.257-0.515,0.343-0.859,0.343C608.652,384.747,608.395,384.619,608.137,384.404z
				 M609.94,395.228h-1.889v-9.02h1.889V395.228z"/>
			<path fill="#FFFFFF" d="M613.376,394.068c-0.856-0.858-1.287-1.975-1.287-3.393c0-1.417,0.431-2.535,1.287-3.352
				c0.86-0.814,1.892-1.245,3.137-1.245c1.247,0,2.191,0.516,2.921,1.547v-4.939h1.892v12.585h-1.892v-1.374
				c-0.686,0.988-1.719,1.503-3.091,1.503C615.226,395.357,614.236,394.929,613.376,394.068z M614.021,390.762
				c0,0.859,0.257,1.59,0.816,2.104c0.559,0.56,1.202,0.816,1.934,0.816c0.73,0,1.374-0.257,1.89-0.816s0.772-1.245,0.772-2.104
				s-0.257-1.588-0.772-2.148c-0.516-0.558-1.159-0.859-1.933-0.859c-0.772,0-1.418,0.302-1.933,0.859
				C614.278,389.174,614.021,389.902,614.021,390.762z"/>
			<path fill="#FFFFFF" d="M632.491,391.535h-7.086c0.042,0.644,0.343,1.202,0.902,1.589c0.558,0.388,1.201,0.601,1.889,0.601
				c1.117,0,1.977-0.342,2.577-1.073l1.074,1.203c-0.987,0.987-2.234,1.503-3.779,1.503c-1.288,0-2.362-0.429-3.223-1.245
				c-0.901-0.859-1.331-1.977-1.331-3.394s0.474-2.534,1.376-3.395c0.899-0.814,1.975-1.245,3.178-1.245
				c1.245,0,2.275,0.388,3.136,1.118c0.859,0.729,1.287,1.76,1.287,3.049V391.535z M625.405,390.031h5.153
				c0-0.772-0.257-1.331-0.729-1.761c-0.473-0.387-1.074-0.603-1.761-0.603c-0.688,0-1.333,0.216-1.891,0.646
				C625.706,388.742,625.405,389.302,625.405,390.031z"/>
			<path fill="#FFFFFF" d="M639.322,387.969c-0.946,0-1.634,0.303-2.106,0.902c-0.471,0.602-0.729,1.418-0.729,2.448v3.866h-1.891
				v-9.021h1.891v1.805c0.299-0.558,0.729-1.029,1.244-1.374c0.517-0.343,1.076-0.558,1.677-0.558v1.932
				C639.364,387.969,639.364,387.969,639.322,387.969z"/>
		</g>
		<g>
			<path fill="#FFFFFF" d="M360.727,375.083v-30.926h8.719l6.917,20.488l6.914-20.488h8.764v30.926h-5.069v-25.385h-0.688
				l-7.303,20.447h-5.24l-7.301-20.447h-0.688v25.385H360.727z"/>
		</g>
		<g>
			<path fill="#FFFFFF" d="M414.332,375.083h-4.939V352.49h4.896v1.417c2.19-1.245,4.296-1.89,6.228-1.89
				c3.007,0,5.07,0.859,6.143,2.535c1.116,1.718,1.632,4.511,1.632,8.419v12.112h-4.896v-11.982c0-2.449-0.257-4.169-0.772-5.198
				c-0.517-1.031-1.59-1.546-3.222-1.546c-1.546,0-3.008,0.3-4.424,0.902l-0.688,0.257v17.567H414.332z"/>
		</g>
		<g>
			<path fill="#FFFFFF" d="M452.474,344.157v30.926h-4.895v-1.16c-2.192,1.118-4.211,1.676-6.058,1.676
				c-2.964,0-5.112-0.901-6.485-2.662c-1.375-1.763-2.063-4.769-2.063-8.935c0-4.168,0.774-7.216,2.276-9.106
				c1.504-1.89,3.907-2.835,7.131-2.835c1.073,0,2.792,0.215,5.154,0.601v-8.504H452.474z M446.804,370.401l0.775-0.3v-13.36
				c-1.806-0.3-3.481-0.472-5.027-0.472c-3.049,0-4.553,2.535-4.553,7.603c0,2.748,0.345,4.682,1.074,5.756
				c0.687,1.073,1.847,1.589,3.351,1.589C443.927,371.218,445.387,370.916,446.804,370.401z"/>
		</g>
		<g>
			<path fill="#FFFFFF" d="M463.342,375.083H458.4v-30.926h4.941v9.536c2.234-1.117,4.295-1.676,6.186-1.676
				c3.006,0,5.067,0.859,6.143,2.535c1.116,1.718,1.632,4.511,1.632,8.419v12.112h-4.939v-11.982c0-2.449-0.258-4.169-0.773-5.198
				c-0.516-1.031-1.59-1.546-3.265-1.546c-1.461,0-2.878,0.257-4.339,0.73l-0.729,0.257v17.74H463.342z"/>
		</g>
		<g>
			<path fill="#FFFFFF" d="M506.295,375.083v-30.926h4.939v30.926H506.295z"/>
		</g>
		<g>
			<path fill="#FFFFFF" d="M517.463,380.882v-28.349h4.897v1.418c2.061-1.246,4.037-1.891,5.841-1.891
				c2.964,0,5.155,0.902,6.53,2.749c1.373,1.804,2.061,4.897,2.061,9.149c0,4.295-0.773,7.301-2.362,9.063
				c-1.589,1.76-4.167,2.619-7.731,2.619c-1.246,0-2.663-0.129-4.296-0.388v5.713h-4.939V380.882z M527.299,356.399
				c-1.417,0-2.834,0.3-4.253,0.944l-0.686,0.302v13.315c1.202,0.258,2.533,0.344,3.994,0.344c2.062,0,3.479-0.602,4.252-1.762
				c0.773-1.159,1.16-3.178,1.16-6.013C531.767,358.805,530.263,356.399,527.299,356.399z"/>
		</g>
		<g>
			<path fill="#FFFFFF" d="M564.625,375.083V352.49h4.896v2.706c2.579-1.675,5.113-2.706,7.69-3.221v4.94
				c-2.577,0.516-4.811,1.16-6.657,1.975l-0.988,0.388v15.806H564.625z"/>
		</g>
		<g>
			<path fill="#FFFFFF" d="M499.036,371.047c-2.233,0.171-4.382,0.257-6.486,0.257c-2.147,0-3.607-0.43-4.381-1.289
				c-0.774-0.858-1.204-2.233-1.204-4.123h14.004l0.3-3.522c0-6.873-3.178-10.352-9.491-10.352c-6.529,0-9.794,3.995-9.794,12.028
				c0,4.036,0.729,6.958,2.191,8.806c1.46,1.847,3.865,2.748,7.216,2.748c1.589,0,3.351-0.129,5.197-0.387L499.036,371.047z
				 M488.126,357.473c0.773-0.945,1.976-1.417,3.695-1.417c1.674,0,2.877,0.429,3.606,1.332c0.688,0.902,1.073,2.447,1.073,4.682
				h-9.536C486.965,359.965,487.353,358.418,488.126,357.473z"/>
		</g>
		<g>
			<path fill="#FFFFFF" d="M557.668,371.047c-2.234,0.171-4.381,0.257-6.486,0.257c-2.147,0-3.609-0.43-4.382-1.289
				c-0.773-0.858-1.202-2.233-1.202-4.123h13.959l0.301-3.522c0-6.873-3.178-10.352-9.492-10.352c-6.528,0-9.793,3.995-9.793,12.028
				c0,4.036,0.729,6.958,2.189,8.806c1.462,1.847,3.865,2.748,7.217,2.748c1.59,0,3.352-0.129,5.197-0.387L557.668,371.047z
				 M546.716,357.473c0.771-0.945,1.975-1.417,3.692-1.417c1.675,0,2.879,0.429,3.608,1.332c0.687,0.902,1.073,2.447,1.073,4.682
				h-9.536C545.554,359.965,545.983,358.418,546.716,357.473z"/>
		</g>
		<g>
			<rect x="398.524" y="352.49" fill="#FFFFFF" width="4.939" height="22.593"/>
		</g>
		<g>
			<g>
				<path fill="#FFFFFF" d="M403.422,344.157L403.422,344.157L403.422,344.157z"/>
			</g>
			<g>
				<polygon fill="#FFFFFF" points="403.422,344.157 398.524,344.157 398.524,349.054 400.587,349.054 				"/>
			</g>
		</g>
	</g>
	<g>
		<rect x="291.142" y="344.157" fill="#FFFFFF" width="57.987" height="11.597"/>
		<rect x="310.471" y="359.621" fill="#FFFFFF" width="38.658" height="11.597"/>
		<polygon fill="#FFFFFF" points="349.129,375.083 302.739,375.083 302.739,386.681 337.574,386.681 349.129,395.228 		"/>
	</g>
</g>
</svg>
