<?xml version="1.0" encoding="utf-8"?>
<!-- Generator: Adobe Illustrator 15.1.0, SVG Export Plug-In . SVG Version: 6.00 Build 0)  -->
<!DOCTYPE svg PUBLIC "-//W3C//DTD SVG 1.1//EN" "http://www.w3.org/Graphics/SVG/1.1/DTD/svg11.dtd">
<svg version="1.1" id="Layer_1" xmlns="http://www.w3.org/2000/svg" xmlns:xlink="http://www.w3.org/1999/xlink" x="0px" y="0px"
	 width="218.947px" height="80px" viewBox="249.592 316.458 218.947 80" enable-background="new 249.592 316.458 218.947 80"
	 xml:space="preserve">
<g>
	<g>
		<path fill="#FFFFFF" d="M326.309,363.962c-0.558-0.333-2.119-1.281-7.28,3.432c1.116-4.379,1.702-8.425,1.702-11.912
			c0-6.527-1.926-11.297-5.69-13.557c-4.129-2.455-9.763-1.227-14.616,3.152c-2.371-11.27-11.381-21.395-23.348-26.026
			c-8.898-3.458-16.234-3.458-21.227,0c-4.157,2.874-6.305,7.922-6.248,14.589c-0.195,6.862,2.677,11.019,5.689,15.426
			c3.459,5.02,7.057,10.209,6.359,20.252c-0.445,6.414-0.836,11.936,2.12,14.783c1.646,1.588,4.157,2.176,7.7,1.785
			c5.382-0.588,10.933-5.217,13.5-7.533c0,0.057-0.028,0.25-0.028,0.25c-0.279,2.457-0.53,4.773-0.53,6.725
			c0,2.621,0.42,4.631,1.729,5.551c0.53,0.393,1.284,0.475,2.064,0.252c1.479-0.447,3.738-2.203,6.081-8.176
			c2.398-6.107,2.817-10.82,1.98-12.131c-0.252-0.418-0.67-0.672-1.172-0.756c-1.394-0.223-3.737,1.006-7.168,3.738
			c1.31-6.498,5.048-15.506,10.404-22.481c0.111,1.339,0.194,2.705,0.194,4.156c0,0.81-0.028,1.617-0.056,2.455
			c-0.057,1.449-0.082,2.817-0.082,4.129c0,8.003,1.197,12.802,3.709,14.951c3.235,2.76,6.834,1.842,13.25-3.654
			c-0.112,0.389-0.279,0.945-0.279,0.945c-1.59,5.332-2.957,10.408-2.957,13.949c0,2.287,0.557,3.932,2.036,4.604
			c2.79,1.281,6.835-3.932,9.708-9.289c2.621-4.91,4.629-10.543,4.629-14.615C328.401,366.67,327.787,364.885,326.309,363.962z
			 M288.373,375.762l2.23-1.506c2.512-1.619,3.153-1.619,3.32-1.592c0.057,0.086,0.085,0.225,0.085,0.504
			c0,0.891-0.448,3.068-2.539,8.395c-2.399,6.139-3.709,6.416-3.738,6.416c-0.278-0.221-0.81-1.563-0.81-4.992
			c0-0.475,0-1.002,0.029-1.59c0.055-1.34,0.224-2.984,0.475-5.021C287.787,376.18,288.373,375.762,288.373,375.762z
			 M285.249,375.846c-5.579,3.988-10.126,6.248-12.775,6.305c-2.286,0.057-4.155-0.588-5.552-1.951
			c-1.979-1.928-3.012-5.219-3.012-9.516c0-11.463-3.348-16.651-6.276-21.226c-2.511-3.905-4.687-7.281-4.77-13.863
			c0.14-4.52,2.204-8.563,5.579-10.794c4.436-2.958,11.102-2.874,19.219,0.25c11.575,4.462,18.188,11.827,20.195,22.51
			C291.219,354.507,286.059,368.676,285.249,375.846z M304.246,375.846c-1.424-1.199-3.014-4.574-3.014-13.808
			c0-1.226,0.027-2.537,0.084-3.96c0.027-0.978,0.056-1.954,0.056-2.902c0-2.426-0.14-4.741-0.419-6.917
			c3.962-3.794,7.727-5.105,10.879-3.71c3.794,1.674,6.191,7.03,6.191,13.5c0,0.364,0,0.728-0.027,1.089
			c-0.139,3.014-0.753,6.779-1.813,11.13C307.815,377.604,305.695,377.043,304.246,375.846z M320.591,381.535
			c-2.762,5.832-4.993,8.619-5.718,8.703c-0.559-0.527-0.838-1.533-0.838-3.041c0-3.068,1.2-8.172,3.572-15.201
			c0,0,0.25-0.754,0.333-1.031c0.224-0.195,0.921-0.838,0.921-0.838c4.658-4.295,5.83-3.988,5.83-3.988
			c0.195,0.252,0.307,0.725,0.307,1.34C325.027,370.186,323.296,375.789,320.591,381.535z"/>
	</g>
	<g>
		<path fill="#FFFFFF" d="M352.277,361.563h-3.431l-3.347-9.595h-2.537v9.595h-3.098v-22.035h6.193c1.756,0,3.178,0.474,4.295,1.422
			c1.227,1.059,1.841,2.621,1.841,4.686c0,2.957-1.144,4.882-3.458,5.801L352.277,361.563z M349.043,345.72
			c0-2.12-1.061-3.208-3.209-3.208h-2.871v6.499h2.871C347.982,349.011,349.043,347.923,349.043,345.72z"/>
		<path fill="#FFFFFF" d="M364.998,353.251c0,0.502,0,0.865-0.028,1.06h-8.619c0.196,3.123,1.228,4.684,3.097,4.684
			c1.115,0,2.092-0.417,2.984-1.224l1.84,1.922c-1.31,1.479-2.955,2.205-4.907,2.205c-1.926,0-3.432-0.78-4.491-2.315
			c-1.06-1.479-1.591-3.543-1.591-6.193c0-2.817,0.558-4.992,1.646-6.499c1.033-1.45,2.426-2.176,4.24-2.176
			c1.729,0,3.097,0.697,4.156,2.121C364.441,348.342,364.998,350.49,364.998,353.251z M361.902,351.718
			c-0.027-1.256-0.307-2.26-0.809-3.041c-0.504-0.754-1.173-1.143-2.01-1.143c-1.589,0-2.51,1.393-2.761,4.184H361.902z"/>
		<path fill="#FFFFFF" d="M377.438,360.115c0,2.426-0.502,4.182-1.478,5.327c-1.061,1.199-2.79,1.926-5.271,2.203l-0.837-2.426
			c1.813-0.225,3.012-0.668,3.627-1.313c0.613-0.641,0.919-1.755,0.919-3.347v-0.139c-0.892,0.976-1.896,1.479-3.067,1.479
			c-3.32,0-4.965-2.931-4.965-8.789c0-2.733,0.445-4.824,1.338-6.248c0.893-1.451,2.177-2.175,3.85-2.175
			c1.115,0,2.064,0.417,2.873,1.227v-0.893h3.012V360.115L377.438,360.115z M374.426,357.575v-8.563
			c-0.642-0.977-1.533-1.477-2.622-1.477c-1.59,0-2.398,1.813-2.398,5.438c0,4.075,0.837,6.11,2.538,6.11
			C373.004,359.083,373.813,358.579,374.426,357.575z"/>
		<path fill="#FFFFFF" d="M383.52,340.588c0,0.501-0.195,0.948-0.558,1.31c-0.363,0.364-0.81,0.559-1.312,0.559
			c-0.529,0-0.977-0.195-1.339-0.559c-0.362-0.362-0.558-0.808-0.558-1.31c0-0.531,0.195-0.977,0.558-1.341
			c0.362-0.362,0.81-0.557,1.339-0.557c0.502,0,0.948,0.195,1.312,0.557C383.353,339.639,383.52,340.085,383.52,340.588z
			 M383.185,361.563h-3.013v-16.512h3.013V361.563z"/>
		<path fill="#FFFFFF" d="M397.326,353.251c0,2.817-0.529,4.964-1.617,6.442s-2.566,2.206-4.436,2.206
			c-1.784,0-3.18-0.698-4.211-2.122c-1.088-1.476-1.646-3.598-1.646-6.415c0-2.845,0.53-4.993,1.618-6.5
			c1.031-1.451,2.482-2.175,4.379-2.175c1.813,0,3.235,0.698,4.267,2.12C396.769,348.313,397.326,350.461,397.326,353.251z
			 M394.287,353.306c0-3.821-0.977-5.717-2.93-5.717c-1.926,0-2.873,1.896-2.873,5.717c0,3.794,0.977,5.689,2.9,5.689
			c0.922,0,1.646-0.526,2.147-1.531C394.008,356.43,394.287,355.064,394.287,353.306z"/>
		<path fill="#FFFFFF" d="M409.963,361.563h-3.013v-10.152c0-1.367-0.14-2.372-0.446-2.958s-0.837-0.893-1.59-0.893
			c-1.033,0-1.84,0.502-2.454,1.507v12.495h-3.013v-16.512h3.013v1.116c0.78-0.977,1.841-1.479,3.207-1.479
			c1.562,0,2.65,0.502,3.319,1.505c0.67,1.004,1.006,2.567,1.006,4.715v10.654H409.963z"/>
	</g>
	<g>
		<path fill="#FFFFFF" d="M349.824,384.941c0,1.813-0.53,3.262-1.563,4.379c-1.061,1.115-2.539,1.672-4.436,1.672
			c-2.482,0-4.407-1.197-5.829-3.6l2.427-1.951c1.031,1.646,2.23,2.453,3.598,2.453c1.758,0,2.65-0.918,2.65-2.787
			c0-0.865-0.252-1.619-0.754-2.232c-0.5-0.643-1.478-1.422-2.955-2.4c-1.479-0.975-2.512-1.869-3.125-2.65
			c-0.864-1.115-1.283-2.453-1.283-4.016c0-1.645,0.502-2.955,1.506-3.988c1.004-1.031,2.371-1.535,4.072-1.535
			c2.203,0,3.989,1.006,5.356,2.986l-2.26,2.008c-0.558-0.725-1.031-1.227-1.507-1.506c-0.445-0.279-1.004-0.418-1.672-0.418
			c-1.535,0-2.288,0.781-2.288,2.314c0,0.811,0.224,1.508,0.669,2.064c0.447,0.559,1.283,1.256,2.537,2.037
			c1.646,1.059,2.791,2.006,3.487,2.873C349.349,381.844,349.824,383.266,349.824,384.941z"/>
		<path fill="#FFFFFF" d="M362.152,374.117l-6.498,22.342h-2.957l1.785-5.83l-4.631-16.512h3.207l1.926,7.836
			c0.391,1.592,0.725,3.098,0.977,4.492c0.222-1.311,0.558-2.816,1.003-4.518l1.952-7.811H362.152L362.152,374.117z"/>
		<path fill="#FFFFFF" d="M373.617,390.629h-3.014v-1.09c-0.892,0.979-1.924,1.453-3.067,1.453c-3.319,0-4.965-2.928-4.965-8.785
			c0-2.732,0.446-4.826,1.339-6.248c0.921-1.451,2.176-2.176,3.85-2.176c1.115,0,2.063,0.416,2.844,1.225v-5.717l3.014-1.563
			V390.629z M370.578,386.639v-8.561c-0.644-0.979-1.508-1.479-2.623-1.479c-1.59,0-2.399,1.813-2.399,5.438
			c0,4.076,0.837,6.111,2.566,6.111C369.153,388.148,369.963,387.645,370.578,386.639z"/>
		<path fill="#FFFFFF" d="M386.894,390.629h-3.013v-1.09c-0.919,0.979-1.924,1.453-3.096,1.453c-3.319,0-4.965-2.928-4.965-8.785
			c0-2.732,0.445-4.826,1.367-6.248c0.893-1.451,2.176-2.176,3.849-2.176c1.116,0,2.063,0.416,2.874,1.225v-5.717l3.012-1.563v22.9
			H386.894z M383.881,386.639v-8.561c-0.668-0.979-1.533-1.479-2.621-1.479c-1.59,0-2.398,1.813-2.398,5.438
			c0,4.076,0.865,6.111,2.565,6.111C382.432,388.148,383.269,387.645,383.881,386.639z"/>
		<path fill="#FFFFFF" d="M399.502,390.629h-3.012v-1.115c-0.865,0.979-2.008,1.479-3.403,1.479c-1.282,0-2.314-0.475-3.152-1.395
			c-0.894-0.977-1.366-2.371-1.366-4.156c0-1.76,0.502-3.098,1.507-4.072c0.948-0.895,2.259-1.369,3.876-1.369
			c0.922,0,1.758,0.168,2.51,0.531v-1.617c0-1.59-0.723-2.371-2.146-2.371c-1.004,0-2.092,0.334-3.235,1.031l-1.283-2.285
			c1.562-1.063,3.151-1.563,4.741-1.563c1.813,0,3.069,0.363,3.822,1.113c0.752,0.729,1.115,2.01,1.115,3.852v11.938H399.502z
			 M396.461,386.695v-3.316c-0.695-0.422-1.533-0.645-2.48-0.645c-1.591,0-2.4,0.865-2.4,2.625c0,1.895,0.697,2.873,2.064,2.873
			C394.956,388.232,395.876,387.729,396.461,386.695z"/>
		<path fill="#FFFFFF" d="M412.92,390.629h-3.013v-10.154c0-1.365-0.168-2.369-0.446-2.953c-0.308-0.588-0.836-0.895-1.59-0.895
			c-1.032,0-1.842,0.502-2.455,1.506v12.496h-3.013v-16.512h3.013v1.115c0.781-0.977,1.842-1.48,3.209-1.48
			c1.562,0,2.648,0.504,3.318,1.51c0.67,1,1.004,2.563,1.004,4.713v10.654H412.92z"/>
		<path fill="#FFFFFF" d="M433.226,390.629h-3.012v-10.154c0-1.225-0.029-2.063-0.112-2.453c-0.224-0.922-0.752-1.395-1.616-1.395
			c-1.033,0-1.842,0.502-2.456,1.506v12.496h-3.011v-10.154c0-1.225-0.029-2.063-0.141-2.453c-0.224-0.922-0.754-1.395-1.591-1.395
			c-1.031,0-1.84,0.502-2.454,1.506v12.496h-3.041v-16.512h3.041v1.115c0.78-0.977,1.813-1.48,3.068-1.48
			c1.562,0,2.68,0.588,3.347,1.76c1.031-1.172,2.316-1.76,3.878-1.76c1.589,0,2.704,0.531,3.318,1.594
			c0.558,0.973,0.812,2.592,0.812,4.908v10.375H433.226z"/>
		<path fill="#FFFFFF" d="M445.778,390.629h-3.014v-1.115c-0.864,0.979-1.979,1.479-3.401,1.479c-1.285,0-2.316-0.475-3.152-1.395
			c-0.893-0.977-1.366-2.371-1.366-4.156c0-1.76,0.501-3.098,1.505-4.072c0.978-0.895,2.26-1.369,3.878-1.369
			c0.922,0,1.757,0.168,2.511,0.531v-1.617c0-1.59-0.725-2.371-2.146-2.371c-1.005,0-2.093,0.334-3.237,1.031l-1.282-2.285
			c1.563-1.063,3.151-1.563,4.739-1.563c1.815,0,3.071,0.363,3.822,1.113c0.754,0.729,1.118,2.01,1.118,3.852v11.938H445.778z
			 M442.765,386.695v-3.316c-0.697-0.422-1.505-0.645-2.48-0.645c-1.592,0-2.399,0.865-2.399,2.625c0,1.895,0.698,2.873,2.063,2.873
			C441.26,388.232,442.181,387.729,442.765,386.695z"/>
		<path fill="#FFFFFF" d="M456.906,374.34l-0.724,3.012c-0.585-0.334-1.282-0.502-2.119-0.502c-0.978,0-1.759,0.418-2.37,1.283
			v12.496h-3.014v-16.512h3.014v1.115c0.781-0.977,1.756-1.48,2.928-1.48C455.541,373.752,456.293,373.949,456.906,374.34z"/>
		<path fill="#FFFFFF" d="M468.539,390.629h-3.29l-2.734-7.729l-1.645,2.625v5.104h-3.015v-21.338l3.015-1.563v9.902
			c0,1.283-0.028,2.453-0.059,3.541c0.225-0.473,0.672-1.338,1.369-2.537l2.483-4.492h3.43l-3.543,5.721L468.539,390.629z"/>
	</g>
</g>
</svg>
